<?xml version="1.0" standalone="no"?>
<!DOCTYPE svg PUBLIC "-//W3C//DTD SVG 20010904//EN"
 "http://www.w3.org/TR/2001/REC-SVG-20010904/DTD/svg10.dtd">
<svg version="1.0" xmlns="http://www.w3.org/2000/svg"
 width="664.000000pt" height="664.000000pt" viewBox="0 0 664.000000 664.000000"
 preserveAspectRatio="xMidYMid meet">
<metadata>
Created by potrace 1.11, written by Peter Selinger 2001-2013
</metadata>
<g transform="translate(0.000000,664.000000) scale(0.100000,-0.100000)"
fill="#000000" stroke="none">
<path d="M3018 6485 c-2 -2 -32 -6 -67 -9 -183 -19 -445 -100 -586 -181 -22
-13 -56 -26 -75 -30 -375 -73 -662 -200 -954 -424 -100 -76 -250 -218 -340
-321 -83 -95 -194 -259 -240 -354 -83 -169 -166 -458 -191 -661 -4 -27 -9 -63
-12 -80 -2 -16 -6 -104 -8 -195 -6 -331 52 -539 188 -667 129 -122 357 -234
568 -279 22 -4 226 -33 240 -34 4 0 5 -15 4 -32 -2 -18 -6 -73 -10 -123 -4
-49 -8 -92 -10 -95 -2 -3 -6 -30 -10 -60 -3 -30 -10 -71 -15 -90 -5 -19 -11
-48 -13 -65 -12 -74 -110 -430 -123 -444 -2 -2 -10 2 -19 9 -32 26 -98 -21
-162 -116 -60 -88 -111 -213 -107 -259 6 -62 9 -69 68 -170 l35 -61 -20 -79
c-11 -44 -35 -125 -54 -180 -35 -105 -158 -458 -194 -560 -38 -105 -119 -377
-144 -485 -36 -153 -46 -219 -52 -347 l-4 -93 1885 0 1884 0 -5 48 c-3 26 -8
54 -10 62 -2 8 -7 39 -10 69 -4 30 -9 63 -11 75 -2 12 -7 46 -10 76 -3 30 -8
58 -10 61 -1 3 -6 34 -10 70 -3 35 -8 66 -9 69 -2 3 -6 31 -10 62 -6 53 -6 56
18 62 45 11 62 78 62 241 -1 220 -41 315 -134 315 -46 0 -43 -6 -65 130 -9 52
-18 107 -21 122 -3 16 -7 39 -9 53 -3 14 -7 33 -10 43 -3 9 -7 34 -11 56 -3
21 -8 42 -11 47 -3 5 1 9 8 9 181 7 385 59 483 125 20 14 38 25 41 25 13 0
123 92 171 142 53 56 116 148 133 193 7 18 17 25 37 26 16 0 287 1 603 1 544
1 576 2 601 19 58 41 99 183 103 354 4 186 -32 350 -91 409 l-26 26 -484 0
c-458 0 -485 1 -478 18 9 24 23 112 21 140 -1 25 -17 16 269 169 159 86 236
129 401 228 107 64 203 168 220 240 45 179 0 396 -173 835 -190 481 -359 826
-496 1015 -133 183 -311 343 -473 424 -84 42 -164 74 -164 65 0 -2 -8 0 -18 5
-19 10 -121 25 -157 23 -11 -1 -74 25 -140 57 -66 32 -155 70 -197 85 -86 29
-260 72 -328 80 -25 3 -72 8 -105 12 -33 4 -116 8 -185 9 -98 2 -137 7 -182
23 -31 11 -70 23 -85 25 -15 3 -48 10 -73 15 -86 19 -146 25 -287 27 -79 1
-144 1 -145 0z"/>
</g>
</svg>
